# xmcd
#
# Track frame offsets:
#	150
#	9861
#	28391
#	42094
#	57537
#	68281
#	89612
#	100852
#	114792
#	125947
#	142449
#	153580
#	166713
#	184777
#	200429
#	221296
#	232421
#	247765
#	261636
#	275948
#
# Disc length: 3846 seconds
#
# Revision: 2
# Processed by: cddbd v1.4PL0 Copyright (c) Steve Scherf et al.
# Submitted via: audiograbber 1.80
#
DISCID=2c0f0414
DTITLE=James Last - The best of Käpt'n James
DYEAR=1900
DGENRE=
TTITLE0=Das ist die Liebe der Matrosen
TTITLE1=La Paloma
TTITLE2=Friesenlied (Wo die Nordseewellen)
TTITLE3=Rolling Home
TTITLE4=Einmal noch nach Bombay
TTITLE5=Ein Schiff wird kommen
TTITLE6=Sie hieß Mary Ann (Sixteen Tones)
TTITLE7=What shall We Do With Drunken Sailor
TTITLE8=Eine Seefaht die ist lustig
TTITLE9=Der Junge von St. Pauli
TTITLE10=Heut' geht an Bord
TTITLE11=Fahr mich in die Ferne
TTITLE12=Biscaya
TTITLE13=My Bonny Lies Over The Ocean
TTITLE14=Junge Kommbald wieder, Die Gitarre und das Meer, Unter fremden Sternen
TTITLE15=Nimm mich mit Kapitän, auf die Reise
TTITLE16=Kleine Möve, flieg nach Helgoland
TTITLE17=Wir lieben die Stürme, The Color Flaggs, Hey, Hey, Hey!
TTITLE18=Good Morning, The Sailor Boy, Blue Britania
TTITLE19=De Käpt'n, de Stüermann, de Bootsman un ick, When Irish Eyes Are Smili
TTITLE19=ng
EXTD=
EXTT0=
EXTT1=
EXTT2=
EXTT3=
EXTT4=
EXTT5=
EXTT6=
EXTT7=
EXTT8=
EXTT9=
EXTT10=
EXTT11=
EXTT12=
EXTT13=
EXTT14=
EXTT15=
EXTT16=
EXTT17=
EXTT18=
EXTT19=
PLAYORDER=
